<svg width="1080" height="540" viewBox="0 0 1080 540" fill="none" xmlns="http://www.w3.org/2000/svg">
<rect width="1080" height="540" fill="#F4F4F4"/>
<rect x="248.5" y="106.5" width="783" height="327" fill="white"/>
<rect x="249" y="107" width="782" height="326" fill="white"/>
<g clip-path="url(#clip0_1280_7440)">
<text fill="black" xml:space="preserve" style="white-space: pre" font-family="IBM Plex Sans" font-size="14" font-weight="600" letter-spacing="0.16px"><tspan x="300" y="135.25">Madrid MZR</tspan></text>
<rect width="20" height="20" transform="translate(264 120)" fill="white" style="mix-blend-mode:multiply"/>
<path d="M274 131.25C273.382 131.25 272.778 131.067 272.264 130.723C271.75 130.38 271.349 129.892 271.113 129.321C270.876 128.75 270.814 128.122 270.935 127.515C271.056 126.909 271.353 126.352 271.79 125.915C272.227 125.478 272.784 125.181 273.39 125.06C273.997 124.939 274.625 125.001 275.196 125.238C275.767 125.474 276.255 125.875 276.598 126.389C276.942 126.903 277.125 127.507 277.125 128.125C277.124 128.954 276.795 129.748 276.209 130.334C275.623 130.92 274.829 131.249 274 131.25ZM274 126.25C273.629 126.25 273.267 126.36 272.958 126.566C272.65 126.772 272.41 127.065 272.268 127.407C272.126 127.75 272.089 128.127 272.161 128.491C272.233 128.855 272.412 129.189 272.674 129.451C272.936 129.713 273.27 129.892 273.634 129.964C273.998 130.036 274.375 129.999 274.718 129.857C275.06 129.715 275.353 129.475 275.559 129.167C275.765 128.858 275.875 128.496 275.875 128.125C275.874 127.628 275.677 127.151 275.325 126.8C274.974 126.448 274.497 126.251 274 126.25Z" fill="black"/>
<path d="M274 138.75L268.728 132.532C268.698 132.496 268.51 132.25 268.51 132.25C267.609 131.064 267.123 129.614 267.125 128.125C267.125 126.302 267.849 124.553 269.139 123.264C270.428 121.974 272.177 121.25 274 121.25C275.823 121.25 277.572 121.974 278.861 123.264C280.151 124.553 280.875 126.302 280.875 128.125C280.877 129.614 280.391 131.062 279.491 132.248L279.49 132.25C279.49 132.25 279.302 132.496 279.274 132.529L274 138.75ZM269.508 131.497C269.508 131.497 269.654 131.689 269.687 131.731L274 136.817L278.319 131.724C278.346 131.689 278.493 131.495 278.493 131.495C279.229 130.526 279.626 129.342 279.625 128.125C279.625 126.633 279.032 125.202 277.977 124.148C276.923 123.093 275.492 122.5 274 122.5C272.508 122.5 271.077 123.093 270.023 124.148C268.968 125.202 268.375 126.633 268.375 128.125C268.374 129.343 268.772 130.527 269.508 131.497Z" fill="black"/>
<line x1="250" y1="106" x2="250" y2="154" stroke="#8D8D8D" stroke-width="4"/>
</g>
<rect x="248.5" y="106.5" width="783" height="327" stroke="#8D8D8D"/>
<rect width="48" height="74" transform="translate(48 162)" fill="white" style="mix-blend-mode:multiply"/>
<rect width="48" height="48" transform="translate(48 162)" fill="#8D8D8D"/>
<rect width="20" height="20" transform="translate(62 176)" fill="white" style="mix-blend-mode:multiply"/>
<path d="M72 178.5C72.6181 178.5 73.2223 178.683 73.7362 179.027C74.2501 179.37 74.6506 179.858 74.8871 180.429C75.1236 181 75.1855 181.628 75.065 182.235C74.9444 182.841 74.6467 183.398 74.2097 183.835C73.7727 184.272 73.2158 184.569 72.6097 184.69C72.0035 184.811 71.3751 184.749 70.8041 184.512C70.2331 184.276 69.745 183.875 69.4017 183.361C69.0583 182.847 68.875 182.243 68.875 181.625C68.875 180.796 69.2042 180.001 69.7903 179.415C70.3763 178.829 71.1712 178.5 72 178.5ZM72 177.25C71.1347 177.25 70.2888 177.507 69.5694 177.987C68.8499 178.468 68.2892 179.151 67.958 179.951C67.6269 180.75 67.5403 181.63 67.7091 182.479C67.8779 183.327 68.2946 184.107 68.9064 184.719C69.5183 185.33 70.2978 185.747 71.1465 185.916C71.9951 186.085 72.8748 185.998 73.6742 185.667C74.4737 185.336 75.1569 184.775 75.6377 184.056C76.1184 183.336 76.375 182.49 76.375 181.625C76.375 180.465 75.9141 179.352 75.0936 178.531C74.2731 177.711 73.1603 177.25 72 177.25Z" fill="white"/>
<path d="M78.25 194.75H77V191.625C77 191.215 76.9192 190.808 76.7621 190.429C76.6051 190.05 76.3749 189.705 76.0847 189.415C75.7945 189.125 75.45 188.895 75.0709 188.738C74.6917 188.581 74.2854 188.5 73.875 188.5H70.125C69.2962 188.5 68.5013 188.829 67.9153 189.415C67.3292 190.001 67 190.796 67 191.625V194.75H65.75V191.625C65.75 190.465 66.2109 189.352 67.0314 188.531C67.8519 187.711 68.9647 187.25 70.125 187.25H73.875C75.0353 187.25 76.1481 187.711 76.9686 188.531C77.7891 189.352 78.25 190.465 78.25 191.625V194.75Z" fill="white"/>
<text fill="black" xml:space="preserve" style="white-space: pre" font-family="IBM Plex Sans" font-size="14" font-weight="600" letter-spacing="0.16px"><tspan x="53.2093" y="232.25">Users</tspan></text>
<rect width="102" height="74" transform="translate(21 304)" fill="white" style="mix-blend-mode:multiply"/>
<rect width="48" height="48" transform="translate(48 304)" fill="#8D8D8D"/>
<rect width="20" height="20" transform="translate(62 318)" fill="white" style="mix-blend-mode:multiply"/>
<path d="M67 320.5V323H64.5V320.5H67ZM68.25 319.25H63.25V324.25H68.25V319.25ZM73.25 320.5V323H70.75V320.5H73.25ZM74.5 319.25H69.5V324.25H74.5V319.25ZM79.5 320.5V323H77V320.5H79.5ZM80.75 319.25H75.75V324.25H80.75V319.25ZM67 326.75V329.25H64.5V326.75H67ZM68.25 325.5H63.25V330.5H68.25V325.5ZM73.25 326.75V329.25H70.75V326.75H73.25ZM74.5 325.5H69.5V330.5H74.5V325.5ZM79.5 326.75V329.25H77V326.75H79.5ZM80.75 325.5H75.75V330.5H80.75V325.5ZM67 333V335.5H64.5V333H67ZM68.25 331.75H63.25V336.75H68.25V331.75ZM73.25 333V335.5H70.75V333H73.25ZM74.5 331.75H69.5V336.75H74.5V331.75ZM79.5 333V335.5H77V333H79.5ZM80.75 331.75H75.75V336.75H80.75V331.75Z" fill="white"/>
<text fill="black" xml:space="preserve" style="white-space: pre" font-family="IBM Plex Sans" font-size="14" font-weight="600" letter-spacing="0.16px"><tspan x="24.5987" y="374.25">App or service</tspan></text>
<rect width="72" height="92" transform="translate(325 234)" fill="white" style="mix-blend-mode:multiply"/>
<rect width="48" height="48" transform="translate(337 234)" fill="#8D8D8D"/>
<g clip-path="url(#clip1_1280_7440)">
<path d="M366.363 256.531C365.742 255.367 364.759 254.437 363.563 253.88C362.367 253.324 361.022 253.171 359.731 253.445C358.441 253.719 357.275 254.406 356.408 255.401C355.542 256.396 355.023 257.646 354.929 258.962C353.856 259.077 352.867 259.599 352.168 260.421C351.468 261.243 351.11 262.302 351.167 263.38C351.224 264.458 351.692 265.472 352.475 266.216C353.258 266.959 354.296 267.374 355.375 267.375H365.375C366.74 267.376 368.055 266.866 369.063 265.947C370.071 265.027 370.699 263.763 370.822 262.404C370.946 261.045 370.557 259.689 369.732 258.603C368.907 257.516 367.705 256.777 366.363 256.531ZM365.375 266.437H355.375C354.543 266.439 353.742 266.125 353.134 265.558C352.526 264.99 352.157 264.213 352.101 263.383C352.046 262.554 352.308 261.734 352.835 261.09C353.362 260.447 354.114 260.028 354.938 259.919C355.004 260.746 355.239 261.551 355.628 262.284C355.656 262.34 355.695 262.39 355.743 262.43C355.79 262.471 355.846 262.501 355.905 262.52C355.965 262.539 356.028 262.546 356.09 262.54C356.152 262.534 356.213 262.516 356.268 262.486C356.323 262.457 356.372 262.416 356.411 262.368C356.45 262.319 356.479 262.263 356.497 262.203C356.514 262.143 356.519 262.08 356.512 262.017C356.504 261.955 356.484 261.895 356.453 261.841C355.834 260.683 355.68 259.332 356.022 258.064C356.365 256.796 357.179 255.706 358.298 255.018C359.416 254.329 360.756 254.094 362.042 254.359C363.328 254.624 364.465 255.371 365.22 256.446C364.471 256.466 363.734 256.641 363.055 256.958C362.376 257.275 361.77 257.728 361.273 258.29C361.231 258.335 361.198 258.389 361.177 258.448C361.156 258.507 361.147 258.569 361.15 258.631C361.153 258.694 361.169 258.755 361.196 258.811C361.223 258.867 361.261 258.917 361.308 258.959C361.355 259 361.409 259.031 361.468 259.051C361.527 259.071 361.59 259.079 361.652 259.075C361.714 259.07 361.775 259.053 361.831 259.025C361.886 258.997 361.936 258.957 361.976 258.91C362.477 258.342 363.112 257.908 363.823 257.649C364.535 257.39 365.3 257.313 366.049 257.425C366.797 257.538 367.506 257.836 368.11 258.293C368.713 258.75 369.193 259.351 369.505 260.042C369.816 260.732 369.95 261.489 369.894 262.244C369.837 262.999 369.592 263.728 369.182 264.364C368.771 265 368.207 265.523 367.542 265.886C366.877 266.248 366.132 266.437 365.375 266.437Z" fill="white"/>
<path d="M370.936 254.409C370.905 254.355 370.864 254.308 370.814 254.27C370.765 254.232 370.709 254.204 370.649 254.188C370.588 254.172 370.526 254.168 370.464 254.176C370.402 254.184 370.343 254.205 370.289 254.236L368.401 255.326C368.346 255.356 368.297 255.397 368.258 255.446C368.218 255.496 368.189 255.553 368.172 255.614C368.155 255.674 368.15 255.738 368.158 255.801C368.166 255.863 368.186 255.924 368.218 255.979C368.25 256.033 368.292 256.081 368.342 256.119C368.392 256.158 368.45 256.185 368.511 256.201C368.572 256.217 368.636 256.22 368.699 256.211C368.761 256.201 368.821 256.18 368.875 256.147L370.762 255.057C370.871 254.994 370.951 254.891 370.984 254.769C371.016 254.648 370.999 254.518 370.936 254.409Z" fill="white"/>
<path d="M365.173 252.919C365.227 252.95 365.286 252.97 365.348 252.978C365.41 252.986 365.472 252.982 365.533 252.966C365.593 252.95 365.649 252.922 365.699 252.884C365.748 252.846 365.789 252.799 365.82 252.745L366.91 250.858C366.972 250.749 366.988 250.62 366.956 250.499C366.923 250.379 366.843 250.276 366.735 250.213C366.627 250.15 366.498 250.133 366.377 250.165C366.256 250.197 366.153 250.276 366.089 250.383L364.999 252.271C364.936 252.38 364.919 252.509 364.952 252.631C364.984 252.752 365.064 252.856 365.173 252.919Z" fill="white"/>
<path d="M361 251.801C361.126 251.801 361.246 251.751 361.335 251.662C361.424 251.573 361.474 251.452 361.474 251.326V249.147C361.475 249.084 361.463 249.022 361.44 248.964C361.416 248.905 361.381 248.852 361.337 248.808C361.293 248.763 361.241 248.728 361.183 248.704C361.125 248.679 361.063 248.667 361 248.667C360.937 248.667 360.875 248.679 360.817 248.704C360.759 248.728 360.707 248.763 360.663 248.808C360.619 248.852 360.584 248.905 360.56 248.964C360.537 249.022 360.525 249.084 360.526 249.147V251.326C360.526 251.452 360.576 251.573 360.665 251.662C360.754 251.751 360.874 251.801 361 251.801Z" fill="white"/>
<path d="M356.18 252.745C356.243 252.853 356.346 252.931 356.467 252.963C356.588 252.995 356.717 252.978 356.826 252.916C356.934 252.853 357.013 252.75 357.046 252.629C357.079 252.509 357.063 252.38 357.001 252.271L355.911 250.383C355.88 250.329 355.839 250.281 355.789 250.243C355.74 250.204 355.683 250.176 355.623 250.16C355.563 250.143 355.5 250.139 355.437 250.147C355.375 250.155 355.316 250.175 355.261 250.207C355.207 250.238 355.16 250.28 355.122 250.329C355.084 250.379 355.056 250.436 355.04 250.496C355.024 250.557 355.02 250.62 355.029 250.682C355.037 250.744 355.058 250.804 355.09 250.858L356.18 252.745Z" fill="white"/>
<path d="M353.599 255.326L351.712 254.236C351.658 254.204 351.598 254.183 351.536 254.175C351.474 254.166 351.411 254.17 351.35 254.186C351.29 254.202 351.233 254.23 351.183 254.268C351.134 254.306 351.092 254.353 351.061 254.407C351.029 254.462 351.009 254.521 351.001 254.584C350.993 254.646 350.997 254.709 351.014 254.769C351.03 254.829 351.058 254.886 351.097 254.935C351.135 254.985 351.183 255.026 351.237 255.057L353.125 256.147C353.179 256.179 353.239 256.199 353.301 256.208C353.363 256.216 353.426 256.212 353.486 256.197C353.547 256.181 353.603 256.153 353.653 256.115C353.703 256.077 353.745 256.029 353.776 255.975C353.807 255.921 353.827 255.861 353.835 255.799C353.843 255.737 353.839 255.674 353.823 255.614C353.806 255.553 353.778 255.497 353.74 255.447C353.701 255.398 353.653 255.357 353.599 255.326Z" fill="white"/>
</g>
<text fill="black" xml:space="preserve" style="white-space: pre" font-family="IBM Plex Sans" font-size="14" font-weight="600" letter-spacing="0.16px"><tspan x="326.504" y="304.25">IBM Cloud </tspan><tspan x="337.257" y="322.25">service</tspan></text>
<rect width="137" height="8" transform="translate(200 254)" fill="white" style="mix-blend-mode:multiply"/>
<path d="M200 258H329" stroke="black"/>
<path d="M329 254L337 258L329 262V254Z" fill="black"/>
<rect width="215" height="8" transform="translate(385 254)" fill="white" style="mix-blend-mode:multiply"/>
<path d="M385 258H592" stroke="black"/>
<path d="M592 254L600 258L592 262V254Z" fill="black"/>
<rect width="220" height="8" transform="translate(648 254)" fill="white" style="mix-blend-mode:multiply"/>
<path d="M648 258H860" stroke="black"/>
<path d="M860 254L868 258L860 262V254Z" fill="black"/>
<rect width="104" height="68" transform="matrix(-1 0 0 1 200 186)" fill="white" style="mix-blend-mode:multiply"/>
<path d="M96 186H192C196.418 186 200 189.582 200 194V254" stroke="black"/>
<rect width="104" height="76" transform="matrix(-1 0 0 -1 200 330)" fill="white" style="mix-blend-mode:multiply"/>
<path d="M96 330H192C196.418 330 200 326.418 200 322V254" stroke="black"/>
<rect x="115.5" y="178.5" width="65" height="15" rx="7.5" fill="white"/>
<text fill="black" xml:space="preserve" style="white-space: pre" font-family="IBM Plex Sans" font-size="12" letter-spacing="0.32px"><tspan x="123" y="189.5">API calls</tspan></text>
<rect x="115.5" y="178.5" width="65" height="15" rx="7.5" stroke="black"/>
<rect x="115.5" y="320.5" width="65" height="15" rx="7.5" fill="white"/>
<text fill="black" xml:space="preserve" style="white-space: pre" font-family="IBM Plex Sans" font-size="12" letter-spacing="0.32px"><tspan x="123" y="331.5">API calls</tspan></text>
<rect x="115.5" y="320.5" width="65" height="15" rx="7.5" stroke="black"/>
<rect width="106" height="74" transform="translate(571 234)" fill="white" style="mix-blend-mode:multiply"/>
<rect width="48" height="48" transform="translate(600 234)" fill="#A56EFF"/>
<rect width="20" height="20" transform="translate(614 248)" fill="white" fill-opacity="0.01" style="mix-blend-mode:multiply"/>
<path d="M627.75 250.5V252.375H620.25V250.5H615.25V255.5H620.25V253.625H624.64C624.227 254.163 624.002 254.822 624 255.5V260.5C623.999 260.997 623.802 261.474 623.45 261.825C623.099 262.177 622.622 262.374 622.125 262.375H620.25V260.5H615.25V265.5H620.25V263.625H622.125C622.953 263.624 623.748 263.294 624.334 262.709C624.919 262.123 625.249 261.328 625.25 260.5V255.5C625.25 255.254 625.298 255.01 625.392 254.783C625.486 254.555 625.624 254.349 625.798 254.174C625.972 254 626.179 253.862 626.406 253.768C626.633 253.674 626.877 253.625 627.123 253.625H627.75V255.5H632.75V250.5H627.75ZM619 254.25H616.5V251.75H619V254.25ZM619 264.25H616.5V261.75H619V264.25ZM631.5 254.25H629V251.75H631.5V254.25Z" fill="white"/>
<text fill="black" xml:space="preserve" style="white-space: pre" font-family="IBM Plex Sans" font-size="14" font-weight="600" letter-spacing="0.16px"><tspan x="597.785" y="304.25"> Metrics</tspan></text>
<rect width="72" height="102" transform="translate(854 234)" fill="white" style="mix-blend-mode:multiply"/>
<rect width="48" height="48" transform="translate(866 234)" fill="#A56EFF"/>
<rect width="20" height="20" transform="translate(880 248)" fill="white" style="mix-blend-mode:multiply"/>
<path d="M897.5 258V261.75H882.5V251.75H886.875V250.5H882.5C882.168 250.5 881.851 250.632 881.616 250.866C881.382 251.101 881.25 251.419 881.25 251.75V261.75C881.25 262.082 881.382 262.4 881.616 262.634C881.851 262.868 882.168 263 882.5 263H887.5V265.5H885V266.75H895V265.5H892.5V263H897.5C897.832 263 898.149 262.868 898.384 262.634C898.618 262.4 898.75 262.082 898.75 261.75V258H897.5ZM891.25 265.5H888.75V263H891.25V265.5Z" fill="white"/>
<path d="M891.25 259.25H891.244C891.109 259.249 890.978 259.204 890.871 259.122C890.764 259.04 890.686 258.926 890.649 258.797L889.528 254.875H886.875V253.625H890C890.136 253.625 890.268 253.669 890.376 253.751C890.485 253.833 890.564 253.948 890.601 254.078L891.272 256.428L893.153 250.316C893.193 250.189 893.273 250.078 893.38 249.999C893.487 249.92 893.617 249.876 893.75 249.875C893.882 249.873 894.01 249.914 894.117 249.991C894.224 250.068 894.303 250.177 894.343 250.302L895.45 253.625H898.75V254.875H895C894.869 254.875 894.741 254.834 894.635 254.757C894.528 254.68 894.449 254.572 894.407 254.448L893.774 252.548L891.847 258.809C891.808 258.937 891.729 259.048 891.621 259.128C891.514 259.207 891.384 259.25 891.25 259.25Z" fill="white"/>
<text fill="black" xml:space="preserve" style="white-space: pre" font-family="IBM Plex Sans" font-size="14" font-weight="600" letter-spacing="0.16px"><tspan x="855.504" y="304.25">IBM Cloud </tspan><tspan x="854.424" y="322.25">Monitoring</tspan></text>
<defs>
<clipPath id="clip0_1280_7440">
<rect width="784" height="48" fill="white" transform="translate(248 106)"/>
</clipPath>
<clipPath id="clip1_1280_7440">
<rect width="20" height="20" fill="white" transform="translate(351 248)"/>
</clipPath>
</defs>
</svg>
