<svg width="1080" height="540" viewBox="0 0 1080 540" fill="none" xmlns="http://www.w3.org/2000/svg">
<rect width="1080" height="540" fill="#F4F4F4"/>
<rect width="1080" height="540" fill="#F4F4F4"/>
<rect x="316.5" y="37.5" width="447" height="465" fill="white"/>
<g clip-path="url(#clip0_1113_50308)">
<text fill="black" xml:space="preserve" style="white-space: pre" font-family="IBM Plex Sans" font-size="14" font-weight="600" letter-spacing="0.16px"><tspan x="368" y="57.25">IBM Cloud</tspan></text>
<text fill="black" xml:space="preserve" style="white-space: pre" font-family="IBM Plex Sans" font-size="14" letter-spacing="0.16px"><tspan x="368" y="75.25">Account</tspan></text>
<g clip-path="url(#clip1_1113_50308)">
<path d="M347.363 59.5313C346.742 58.3673 345.759 57.4369 344.563 56.8802C343.367 56.3235 342.022 56.1709 340.731 56.4452C339.441 56.7195 338.275 57.4059 337.408 58.401C336.542 59.396 336.023 60.6457 335.929 61.9617C334.855 62.0771 333.867 62.5995 333.168 63.4213C332.468 64.2431 332.11 65.3019 332.167 66.3797C332.224 67.4576 332.692 68.4725 333.475 69.2157C334.258 69.9589 335.296 70.3738 336.375 70.375H346.375C347.739 70.3759 349.055 69.8663 350.063 68.9466C351.071 68.0268 351.698 66.7633 351.822 65.4044C351.946 64.0455 351.557 62.6894 350.732 61.6026C349.907 60.5159 348.705 59.777 347.363 59.5313ZM346.375 69.4375H336.375C335.543 69.4394 334.742 69.1248 334.134 68.5575C333.526 67.9903 333.157 67.2129 333.101 66.3832C333.046 65.5535 333.308 64.7338 333.835 64.0904C334.362 63.4471 335.113 63.0283 335.938 62.9192C336.004 63.7463 336.239 64.5511 336.628 65.2841C336.656 65.34 336.695 65.3896 336.742 65.4302C336.79 65.4707 336.845 65.5013 336.905 65.5202C336.965 65.539 337.028 65.5457 337.09 65.5399C337.152 65.534 337.213 65.5158 337.268 65.4862C337.323 65.4566 337.372 65.4163 337.411 65.3676C337.45 65.3189 337.479 65.2628 337.497 65.2027C337.514 65.1426 337.519 65.0796 337.512 65.0175C337.504 64.9553 337.484 64.8953 337.453 64.841C336.834 63.6827 336.68 62.3317 337.022 61.0636C337.365 59.7955 338.179 58.7061 339.298 58.0176C340.416 57.3292 341.755 57.0936 343.042 57.359C344.328 57.6244 345.465 58.3708 346.22 59.4458C345.471 59.4665 344.734 59.6408 344.055 59.958C343.376 60.2751 342.77 60.7284 342.273 61.2896C342.231 61.3355 342.198 61.3894 342.177 61.4481C342.156 61.5068 342.146 61.5691 342.15 61.6314C342.153 61.6937 342.168 61.7548 342.196 61.811C342.223 61.8672 342.261 61.9174 342.308 61.9587C342.354 62 342.409 62.0315 342.468 62.0514C342.527 62.0714 342.59 62.0793 342.652 62.0747C342.714 62.0701 342.775 62.0532 342.831 62.0249C342.886 61.9965 342.936 61.9574 342.976 61.9097C343.477 61.3417 344.112 60.9083 344.823 60.649C345.535 60.3897 346.3 60.3128 347.048 60.4254C347.797 60.538 348.506 60.8364 349.11 61.2934C349.713 61.7504 350.193 62.3514 350.505 63.0415C350.816 63.7317 350.95 64.4889 350.893 65.244C350.837 65.9991 350.592 66.728 350.182 67.3641C349.771 68.0003 349.207 68.5233 348.542 68.8855C347.877 69.2477 347.132 69.4375 346.375 69.4375Z" fill="black"/>
<path d="M351.936 57.4093C351.905 57.3553 351.864 57.308 351.814 57.2701C351.765 57.2322 351.709 57.2044 351.648 57.1883C351.588 57.1721 351.526 57.168 351.464 57.1762C351.402 57.1844 351.342 57.2046 351.289 57.2358L349.401 58.3257C349.346 58.356 349.297 58.3971 349.258 58.4465C349.218 58.496 349.189 58.5528 349.172 58.6136C349.155 58.6744 349.15 58.7381 349.158 58.8007C349.166 58.8634 349.186 58.9239 349.218 58.9786C349.249 59.0334 349.292 59.0812 349.342 59.1194C349.392 59.1576 349.45 59.1854 349.511 59.201C349.572 59.2167 349.636 59.22 349.698 59.2107C349.761 59.2014 349.821 59.1797 349.875 59.1469L351.762 58.057C351.871 57.9942 351.951 57.8906 351.983 57.7692C352.016 57.6477 351.999 57.5182 351.936 57.4093Z" fill="black"/>
<path d="M346.173 55.9188C346.227 55.95 346.286 55.9702 346.348 55.9783C346.41 55.9865 346.472 55.9824 346.532 55.9663C346.593 55.9502 346.649 55.9224 346.698 55.8844C346.748 55.8465 346.789 55.7992 346.82 55.7453L347.91 53.8578C347.972 53.7489 347.988 53.6201 347.955 53.4993C347.923 53.3786 347.843 53.2757 347.735 53.2131C347.627 53.1505 347.498 53.1333 347.377 53.1652C347.256 53.1972 347.152 53.2756 347.089 53.3835L345.999 55.271C345.936 55.3799 345.919 55.5094 345.952 55.6308C345.984 55.7523 346.064 55.8559 346.173 55.9188Z" fill="black"/>
<path d="M342 54.8007C342.126 54.8007 342.246 54.7507 342.335 54.6618C342.424 54.5728 342.474 54.4522 342.474 54.3265V52.1467C342.475 52.084 342.463 52.0217 342.44 51.9636C342.416 51.9054 342.381 51.8525 342.337 51.8079C342.293 51.7632 342.241 51.7278 342.183 51.7036C342.125 51.6795 342.063 51.667 342 51.667C341.937 51.667 341.875 51.6795 341.817 51.7036C341.759 51.7278 341.707 51.7632 341.663 51.8079C341.619 51.8525 341.584 51.9054 341.56 51.9636C341.537 52.0217 341.525 52.084 341.526 52.1467V54.3265C341.526 54.4522 341.576 54.5728 341.665 54.6618C341.754 54.7507 341.874 54.8007 342 54.8007Z" fill="black"/>
<path d="M337.179 55.7452C337.243 55.8531 337.346 55.9315 337.467 55.9634C337.588 55.9954 337.717 55.9782 337.825 55.9156C337.934 55.853 338.013 55.7501 338.046 55.6294C338.079 55.5086 338.062 55.3797 338.001 55.2709L336.911 53.3834C336.88 53.329 336.839 53.2812 336.789 53.2429C336.74 53.2045 336.683 53.1763 336.623 53.1599C336.562 53.1435 336.499 53.1392 336.437 53.1472C336.375 53.1553 336.315 53.1755 336.261 53.2068C336.207 53.2381 336.16 53.2798 336.122 53.3295C336.084 53.3792 336.056 53.436 336.04 53.4965C336.024 53.557 336.02 53.62 336.029 53.682C336.037 53.744 336.058 53.8037 336.09 53.8577L337.179 55.7452Z" fill="black"/>
<path d="M334.599 58.3257L332.711 57.2358C332.658 57.2041 332.598 57.1834 332.536 57.1749C332.474 57.1663 332.411 57.1702 332.35 57.1861C332.29 57.2021 332.233 57.2299 332.183 57.2679C332.134 57.3059 332.092 57.3533 332.061 57.4075C332.029 57.4617 332.009 57.5215 332.001 57.5836C331.993 57.6456 331.997 57.7087 332.014 57.769C332.03 57.8294 332.058 57.8859 332.097 57.9354C332.135 57.9848 332.183 58.0261 332.237 58.057L334.125 59.1469C334.179 59.1786 334.239 59.1993 334.301 59.2078C334.363 59.2163 334.426 59.2125 334.486 59.1966C334.547 59.1806 334.603 59.1528 334.653 59.1148C334.703 59.0768 334.744 59.0294 334.776 58.9752C334.807 58.921 334.827 58.8612 334.835 58.7991C334.843 58.7371 334.839 58.674 334.823 58.6137C334.806 58.5533 334.778 58.4967 334.74 58.4473C334.701 58.3979 334.653 58.3565 334.599 58.3257Z" fill="black"/>
</g>
<line x1="318" y1="37" x2="318" y2="85" stroke="#8D8D8D" stroke-width="4"/>
</g>
<rect x="316.5" y="37.5" width="447" height="465" stroke="#8D8D8D"/>
<rect width="184" height="92" transform="translate(344 103)" fill="white" style="mix-blend-mode:multiply"/>
<rect width="48" height="48" transform="translate(412 103)" fill="#8D8D8D"/>
<g clip-path="url(#clip2_1113_50308)">
<path d="M438.5 125.125H433.5C433.169 125.125 432.851 125.257 432.617 125.492C432.382 125.726 432.25 126.044 432.25 126.375V134.5C432.25 134.831 432.382 135.149 432.617 135.383C432.851 135.618 433.169 135.75 433.5 135.75H438.5C438.831 135.75 439.149 135.618 439.383 135.383C439.618 135.149 439.75 134.831 439.75 134.5V126.375C439.75 126.044 439.618 125.726 439.383 125.492C439.149 125.257 438.831 125.125 438.5 125.125ZM438.5 126.375V128.25H433.5V126.375H438.5ZM438.5 129.5V131.375H433.5V129.5H438.5ZM433.5 134.5V132.625H438.5V134.5H433.5Z" fill="white"/>
<path d="M442.194 123.331C442.179 123.329 442.165 123.321 442.154 123.311C442.144 123.3 442.136 123.287 442.133 123.272C441.888 122.054 441.287 120.938 440.405 120.063C439.523 119.189 438.401 118.598 437.181 118.364C435.561 118.051 433.883 118.391 432.512 119.31C431.142 120.23 430.191 121.654 429.866 123.272C429.863 123.287 429.856 123.3 429.845 123.311C429.834 123.321 429.821 123.329 429.806 123.332C428.661 123.551 427.638 124.19 426.938 125.122C426.238 126.055 425.911 127.215 426.021 128.376C426.13 129.537 426.668 130.616 427.53 131.402C428.392 132.187 429.516 132.623 430.682 132.625H431V131.375H430.685C430.191 131.374 429.704 131.266 429.256 131.06C428.808 130.855 428.409 130.555 428.087 130.181C427.765 129.808 427.526 129.37 427.388 128.897C427.25 128.423 427.215 127.926 427.285 127.438C427.411 126.705 427.763 126.031 428.291 125.509C428.82 124.986 429.498 124.642 430.232 124.525L430.867 124.41C430.883 124.407 430.898 124.399 430.91 124.388C430.921 124.376 430.929 124.361 430.932 124.345L431.045 123.761C431.231 122.7 431.743 121.725 432.51 120.969C433.278 120.214 434.261 119.717 435.324 119.547C435.917 119.465 436.52 119.492 437.103 119.624C438.072 119.86 438.95 120.372 439.632 121.099C440.315 121.825 440.771 122.734 440.946 123.715L441.067 124.345C441.07 124.361 441.078 124.376 441.09 124.388C441.101 124.399 441.116 124.407 441.132 124.41L441.793 124.53C442.522 124.645 443.199 124.98 443.731 125.491C444.215 125.971 444.545 126.583 444.681 127.251C444.816 127.918 444.75 128.61 444.492 129.24C444.233 129.87 443.793 130.41 443.228 130.79C442.663 131.17 441.998 131.373 441.317 131.375H441V132.625H441.317C442.484 132.624 443.608 132.188 444.47 131.402C445.332 130.617 445.871 129.538 445.98 128.377C446.09 127.215 445.762 126.055 445.062 125.122C444.362 124.189 443.339 123.551 442.194 123.331Z" fill="white"/>
</g>
<text fill="black" xml:space="preserve" style="white-space: pre" font-family="IBM Plex Sans" font-size="14" font-weight="600" letter-spacing="0.16px"><tspan x="346.43" y="173.25">Virtualization Management</tspan></text>
<text fill="black" xml:space="preserve" style="white-space: pre" font-family="IBM Plex Sans" font-size="14" letter-spacing="0.16px"><tspan x="360.914" y="191.25">VMware vCenter Server</tspan></text>
<rect width="152" height="92" transform="translate(560 103)" fill="white" style="mix-blend-mode:multiply"/>
<rect width="48" height="48" transform="translate(612 103)" fill="#8D8D8D"/>
<path d="M642.875 129.759L641.991 128.875L640.375 130.492L638.759 128.875L637.875 129.759L639.491 131.375L637.875 132.991L638.759 133.875L640.375 132.259L641.991 133.875L642.875 132.991L641.259 131.375L642.875 129.759Z" fill="white"/>
<path d="M641 119.5C640.337 119.501 639.702 119.764 639.233 120.233C638.764 120.702 638.501 121.337 638.5 122C638.502 122.445 638.625 122.881 638.854 123.262L632.262 129.854C631.881 129.625 631.445 129.502 631 129.5C630.506 129.5 630.022 129.647 629.611 129.921C629.2 130.196 628.88 130.586 628.69 131.043C628.501 131.5 628.452 132.003 628.548 132.488C628.645 132.973 628.883 133.418 629.232 133.768C629.582 134.117 630.027 134.356 630.512 134.452C630.997 134.548 631.5 134.499 631.957 134.31C632.414 134.12 632.804 133.8 633.079 133.389C633.353 132.978 633.5 132.494 633.5 132C633.498 131.555 633.375 131.119 633.146 130.738L639.738 124.146C640.119 124.375 640.555 124.498 641 124.5C641.663 124.5 642.299 124.237 642.768 123.768C643.237 123.299 643.5 122.663 643.5 122C643.5 121.337 643.237 120.701 642.768 120.232C642.299 119.763 641.663 119.5 641 119.5ZM631 133.25C630.753 133.25 630.511 133.177 630.306 133.039C630.1 132.902 629.94 132.707 629.845 132.478C629.751 132.25 629.726 131.999 629.774 131.756C629.822 131.514 629.941 131.291 630.116 131.116C630.291 130.941 630.514 130.822 630.756 130.774C630.999 130.726 631.25 130.751 631.478 130.845C631.707 130.94 631.902 131.1 632.039 131.306C632.177 131.511 632.25 131.753 632.25 132C632.25 132.331 632.118 132.649 631.883 132.883C631.649 133.118 631.331 133.25 631 133.25ZM641 123.25C640.753 123.25 640.511 123.177 640.306 123.039C640.1 122.902 639.94 122.707 639.845 122.478C639.751 122.25 639.726 121.999 639.774 121.756C639.822 121.514 639.941 121.291 640.116 121.116C640.291 120.941 640.514 120.822 640.756 120.774C640.999 120.726 641.25 120.751 641.478 120.845C641.707 120.94 641.902 121.1 642.039 121.306C642.177 121.511 642.25 121.753 642.25 122C642.25 122.331 642.118 122.649 641.883 122.883C641.649 123.118 641.331 123.25 641 123.25Z" fill="white"/>
<path d="M631 123.988L629.381 122.369L628.5 123.25L631 125.75L635.375 121.375L634.494 120.494L631 123.988Z" fill="white"/>
<text fill="black" xml:space="preserve" style="white-space: pre" font-family="IBM Plex Sans" font-size="14" font-weight="600" letter-spacing="0.16px"><tspan x="562.958" y="173.25">Network Management</tspan></text>
<text fill="black" xml:space="preserve" style="white-space: pre" font-family="IBM Plex Sans" font-size="14" letter-spacing="0.16px"><tspan x="565.44" y="191.25">VMware NSX Manager</tspan></text>
<rect width="184" height="92" transform="translate(344 219)" fill="white" style="mix-blend-mode:multiply"/>
<rect width="48" height="48" transform="translate(412 219)" fill="#8D8D8D"/>
<g clip-path="url(#clip3_1113_50308)">
<path d="M438.5 241.125H433.5C433.169 241.125 432.851 241.257 432.617 241.492C432.382 241.726 432.25 242.044 432.25 242.375V250.5C432.25 250.831 432.382 251.149 432.617 251.383C432.851 251.618 433.169 251.75 433.5 251.75H438.5C438.831 251.75 439.149 251.618 439.383 251.383C439.618 251.149 439.75 250.831 439.75 250.5V242.375C439.75 242.044 439.618 241.726 439.383 241.492C439.149 241.257 438.831 241.125 438.5 241.125ZM438.5 242.375V244.25H433.5V242.375H438.5ZM438.5 245.5V247.375H433.5V245.5H438.5ZM433.5 250.5V248.625H438.5V250.5H433.5Z" fill="white"/>
<path d="M442.194 239.331C442.179 239.329 442.165 239.321 442.154 239.311C442.144 239.3 442.136 239.287 442.133 239.272C441.888 238.054 441.287 236.938 440.405 236.063C439.523 235.189 438.401 234.598 437.181 234.364C435.561 234.051 433.883 234.391 432.512 235.31C431.142 236.23 430.191 237.654 429.866 239.272C429.863 239.287 429.856 239.3 429.845 239.311C429.834 239.321 429.821 239.329 429.806 239.332C428.661 239.551 427.638 240.19 426.938 241.122C426.238 242.055 425.911 243.215 426.021 244.376C426.13 245.537 426.668 246.616 427.53 247.402C428.392 248.187 429.516 248.623 430.682 248.625H431V247.375H430.685C430.191 247.374 429.704 247.266 429.256 247.06C428.808 246.855 428.409 246.555 428.087 246.181C427.765 245.808 427.526 245.37 427.388 244.897C427.25 244.423 427.215 243.926 427.285 243.438C427.411 242.705 427.763 242.031 428.291 241.509C428.82 240.986 429.498 240.642 430.232 240.525L430.867 240.41C430.883 240.407 430.898 240.399 430.91 240.388C430.921 240.376 430.929 240.361 430.932 240.345L431.045 239.761C431.231 238.7 431.743 237.725 432.51 236.969C433.278 236.214 434.261 235.717 435.324 235.547C435.917 235.465 436.52 235.492 437.103 235.624C438.072 235.86 438.95 236.372 439.632 237.099C440.315 237.825 440.771 238.734 440.946 239.715L441.067 240.345C441.07 240.361 441.078 240.376 441.09 240.388C441.101 240.399 441.116 240.407 441.132 240.41L441.793 240.53C442.522 240.645 443.199 240.98 443.731 241.491C444.215 241.971 444.545 242.583 444.681 243.251C444.816 243.918 444.75 244.61 444.492 245.24C444.233 245.87 443.793 246.41 443.228 246.79C442.663 247.17 441.998 247.373 441.317 247.375H441V248.625H441.317C442.484 248.624 443.608 248.188 444.47 247.402C445.332 246.617 445.871 245.538 445.98 244.377C446.09 243.215 445.762 242.055 445.062 241.122C444.362 240.189 443.339 239.551 442.194 239.331Z" fill="white"/>
</g>
<text fill="black" xml:space="preserve" style="white-space: pre" font-family="IBM Plex Sans" font-size="14" font-weight="600" letter-spacing="0.16px"><tspan x="359.391" y="289.25">Compute Virtualization</tspan></text>
<text fill="black" xml:space="preserve" style="white-space: pre" font-family="IBM Plex Sans" font-size="14" letter-spacing="0.16px"><tspan x="382.159" y="307.25">VMware vSphere</tspan></text>
<rect width="152" height="92" transform="translate(560 219)" fill="white" style="mix-blend-mode:multiply"/>
<rect width="48" height="48" transform="translate(612 219)" fill="#8D8D8D"/>
<path d="M642.875 245.759L641.991 244.875L640.375 246.492L638.759 244.875L637.875 245.759L639.491 247.375L637.875 248.991L638.759 249.875L640.375 248.259L641.991 249.875L642.875 248.991L641.259 247.375L642.875 245.759Z" fill="white"/>
<path d="M641 235.5C640.337 235.501 639.702 235.764 639.233 236.233C638.764 236.702 638.501 237.337 638.5 238C638.502 238.445 638.625 238.881 638.854 239.262L632.262 245.854C631.881 245.625 631.445 245.502 631 245.5C630.506 245.5 630.022 245.647 629.611 245.921C629.2 246.196 628.88 246.586 628.69 247.043C628.501 247.5 628.452 248.003 628.548 248.488C628.645 248.973 628.883 249.418 629.232 249.768C629.582 250.117 630.027 250.356 630.512 250.452C630.997 250.548 631.5 250.499 631.957 250.31C632.414 250.12 632.804 249.8 633.079 249.389C633.353 248.978 633.5 248.494 633.5 248C633.498 247.555 633.375 247.119 633.146 246.738L639.738 240.146C640.119 240.375 640.555 240.498 641 240.5C641.663 240.5 642.299 240.237 642.768 239.768C643.237 239.299 643.5 238.663 643.5 238C643.5 237.337 643.237 236.701 642.768 236.232C642.299 235.763 641.663 235.5 641 235.5ZM631 249.25C630.753 249.25 630.511 249.177 630.306 249.039C630.1 248.902 629.94 248.707 629.845 248.478C629.751 248.25 629.726 247.999 629.774 247.756C629.822 247.514 629.941 247.291 630.116 247.116C630.291 246.941 630.514 246.822 630.756 246.774C630.999 246.726 631.25 246.751 631.478 246.845C631.707 246.94 631.902 247.1 632.039 247.306C632.177 247.511 632.25 247.753 632.25 248C632.25 248.331 632.118 248.649 631.883 248.883C631.649 249.118 631.331 249.25 631 249.25ZM641 239.25C640.753 239.25 640.511 239.177 640.306 239.039C640.1 238.902 639.94 238.707 639.845 238.478C639.751 238.25 639.726 237.999 639.774 237.756C639.822 237.514 639.941 237.291 640.116 237.116C640.291 236.941 640.514 236.822 640.756 236.774C640.999 236.726 641.25 236.751 641.478 236.845C641.707 236.94 641.902 237.1 642.039 237.306C642.177 237.511 642.25 237.753 642.25 238C642.25 238.331 642.118 238.649 641.883 238.883C641.649 239.118 641.331 239.25 641 239.25Z" fill="white"/>
<path d="M631 239.988L629.381 238.369L628.5 239.25L631 241.75L635.375 237.375L634.494 236.494L631 239.988Z" fill="white"/>
<text fill="black" xml:space="preserve" style="white-space: pre" font-family="IBM Plex Sans" font-size="14" font-weight="600" letter-spacing="0.16px"><tspan x="562.958" y="289.25">Network Management</tspan></text>
<text fill="black" xml:space="preserve" style="white-space: pre" font-family="IBM Plex Sans" font-size="14" letter-spacing="0.16px"><tspan x="594.941" y="307.25">VMware NSX</tspan></text>
<rect x="332.5" y="333.5" width="415" height="153" fill="white"/>
<rect x="333" y="334" width="414" height="152" fill="#F4F4F4"/>
<g clip-path="url(#clip4_1113_50308)">
<text fill="black" xml:space="preserve" style="white-space: pre" font-family="IBM Plex Sans" font-size="14" font-weight="600" letter-spacing="0.16px"><tspan x="384" y="362.25">Physical infrastructure</tspan></text>
<path d="M366.75 363.25H359.25V364.5H366.75V363.25Z" fill="black"/>
<path d="M366.75 360.125H359.25V361.375H366.75V360.125Z" fill="black"/>
<path d="M366.75 357H359.25V358.25H366.75V357Z" fill="black"/>
<path d="M356.75 362.625H353.938C352.766 362.626 351.637 362.187 350.773 361.397C349.909 360.607 349.372 359.521 349.268 358.354C349.165 357.188 349.502 356.025 350.213 355.094C350.924 354.164 351.958 353.533 353.111 353.327C353.404 351.8 354.255 350.436 355.499 349.503C356.743 348.569 358.291 348.133 359.839 348.28C361.387 348.426 362.825 349.145 363.872 350.295C364.919 351.445 365.5 352.945 365.5 354.5H364.25C364.25 353.221 363.76 351.991 362.881 351.062C362.002 350.133 360.8 349.577 359.523 349.507C358.246 349.438 356.991 349.86 356.016 350.687C355.041 351.515 354.42 352.685 354.281 353.956L354.225 354.477L353.702 354.512C352.812 354.572 351.981 354.976 351.383 355.637C350.786 356.299 350.469 357.167 350.499 358.058C350.53 358.949 350.906 359.793 351.547 360.412C352.189 361.031 353.046 361.376 353.938 361.375H356.75V362.625Z" fill="black"/>
<line x1="334" y1="333" x2="334" y2="381" stroke="#8D8D8D" stroke-width="4"/>
</g>
<rect x="332.5" y="333.5" width="415" height="153" stroke="#8D8D8D"/>
<rect width="76" height="74" transform="translate(350 397)" fill="white" style="mix-blend-mode:multiply"/>
<rect width="48" height="48" transform="translate(364 397)" fill="#8D8D8D"/>
<g clip-path="url(#clip5_1113_50308)">
<path d="M390.5 419.125H385.5C385.169 419.125 384.851 419.257 384.617 419.492C384.382 419.726 384.25 420.044 384.25 420.375V428.5C384.25 428.831 384.382 429.149 384.617 429.383C384.851 429.618 385.169 429.75 385.5 429.75H390.5C390.831 429.75 391.149 429.618 391.383 429.383C391.618 429.149 391.75 428.831 391.75 428.5V420.375C391.75 420.044 391.618 419.726 391.383 419.492C391.149 419.257 390.831 419.125 390.5 419.125ZM390.5 420.375V422.25H385.5V420.375H390.5ZM390.5 423.5V425.375H385.5V423.5H390.5ZM385.5 428.5V426.625H390.5V428.5H385.5Z" fill="white"/>
<path d="M394.194 417.331C394.179 417.329 394.165 417.321 394.154 417.311C394.144 417.3 394.136 417.287 394.133 417.272C393.888 416.054 393.287 414.938 392.405 414.063C391.523 413.189 390.401 412.598 389.181 412.363C387.561 412.05 385.883 412.391 384.512 413.31C383.142 414.23 382.191 415.654 381.866 417.272C381.863 417.287 381.856 417.3 381.845 417.311C381.834 417.321 381.821 417.329 381.806 417.331C380.661 417.551 379.638 418.19 378.938 419.122C378.238 420.055 377.911 421.215 378.021 422.376C378.13 423.537 378.668 424.616 379.53 425.402C380.392 426.187 381.516 426.623 382.682 426.625H383V425.375H382.685C382.191 425.374 381.704 425.266 381.256 425.06C380.808 424.855 380.409 424.555 380.087 424.181C379.765 423.808 379.526 423.37 379.388 422.897C379.25 422.423 379.215 421.926 379.285 421.437C379.411 420.705 379.763 420.031 380.291 419.509C380.82 418.986 381.498 418.642 382.232 418.525L382.867 418.41C382.883 418.407 382.898 418.399 382.91 418.388C382.921 418.376 382.929 418.361 382.932 418.345L383.045 417.761C383.231 416.7 383.743 415.725 384.51 414.969C385.278 414.214 386.261 413.717 387.324 413.547C387.917 413.465 388.52 413.492 389.103 413.624C390.072 413.86 390.95 414.372 391.632 415.099C392.315 415.825 392.771 416.734 392.946 417.715L393.067 418.345C393.07 418.361 393.078 418.376 393.09 418.388C393.101 418.399 393.116 418.407 393.132 418.41L393.793 418.529C394.522 418.645 395.199 418.98 395.731 419.491C396.215 419.971 396.545 420.583 396.681 421.251C396.816 421.918 396.75 422.61 396.492 423.24C396.233 423.87 395.793 424.41 395.228 424.79C394.663 425.17 393.998 425.373 393.317 425.375H393V426.625H393.317C394.484 426.624 395.608 426.188 396.47 425.402C397.332 424.617 397.871 423.538 397.98 422.377C398.09 421.215 397.762 420.055 397.062 419.122C396.362 418.189 395.339 417.551 394.194 417.331Z" fill="white"/>
</g>
<text fill="black" xml:space="preserve" style="white-space: pre" font-family="IBM Plex Sans" font-size="14" font-weight="600" letter-spacing="0.16px"><tspan x="358.064" y="467.25">Compute</tspan></text>
<rect width="76" height="74" transform="translate(503 397)" fill="white" style="mix-blend-mode:multiply"/>
<rect width="48" height="48" transform="translate(517 397)" fill="#8D8D8D"/>
<path d="M536.625 415.375C536.97 415.375 537.25 415.095 537.25 414.75C537.25 414.405 536.97 414.125 536.625 414.125C536.28 414.125 536 414.405 536 414.75C536 415.095 536.28 415.375 536.625 415.375Z" fill="white"/>
<path d="M547.25 417.25H534.75C534.419 417.25 534.101 417.118 533.867 416.883C533.632 416.649 533.5 416.331 533.5 416V413.5C533.5 413.169 533.632 412.851 533.867 412.617C534.101 412.382 534.419 412.25 534.75 412.25H547.25C547.581 412.25 547.899 412.382 548.133 412.617C548.368 412.851 548.5 413.169 548.5 413.5V416C548.5 416.331 548.368 416.649 548.133 416.883C547.899 417.118 547.581 417.25 547.25 417.25ZM534.75 413.5V416H547.25V413.5H534.75Z" fill="white"/>
<path d="M536.625 421.625C536.97 421.625 537.25 421.345 537.25 421C537.25 420.655 536.97 420.375 536.625 420.375C536.28 420.375 536 420.655 536 421C536 421.345 536.28 421.625 536.625 421.625Z" fill="white"/>
<path d="M547.25 423.5H534.75C534.419 423.5 534.101 423.368 533.867 423.133C533.632 422.899 533.5 422.581 533.5 422.25V419.75C533.5 419.419 533.632 419.101 533.867 418.867C534.101 418.632 534.419 418.5 534.75 418.5H547.25C547.581 418.5 547.899 418.632 548.133 418.867C548.368 419.101 548.5 419.419 548.5 419.75V422.25C548.5 422.581 548.368 422.899 548.133 423.133C547.899 423.368 547.581 423.5 547.25 423.5ZM534.75 419.75V422.25H547.25V419.75H534.75Z" fill="white"/>
<path d="M536.625 427.875C536.97 427.875 537.25 427.595 537.25 427.25C537.25 426.905 536.97 426.625 536.625 426.625C536.28 426.625 536 426.905 536 427.25C536 427.595 536.28 427.875 536.625 427.875Z" fill="white"/>
<path d="M547.25 429.75H534.75C534.419 429.75 534.101 429.618 533.867 429.383C533.632 429.149 533.5 428.831 533.5 428.5V426C533.5 425.669 533.632 425.351 533.867 425.117C534.101 424.882 534.419 424.75 534.75 424.75H547.25C547.581 424.75 547.899 424.882 548.133 425.117C548.368 425.351 548.5 425.669 548.5 426V428.5C548.5 428.831 548.368 429.149 548.133 429.383C547.899 429.618 547.581 429.75 547.25 429.75ZM534.75 426V428.5H547.25V426H534.75Z" fill="white"/>
<text fill="black" xml:space="preserve" style="white-space: pre" font-family="IBM Plex Sans" font-size="14" font-weight="600" letter-spacing="0.16px"><tspan x="515.473" y="467.25">Storage</tspan></text>
<rect width="76" height="74" transform="translate(656 397)" fill="white" style="mix-blend-mode:multiply"/>
<rect width="48" height="48" transform="translate(670 397)" fill="#8D8D8D"/>
<path d="M698.062 419.125C695.125 419.125 692.75 421.5 692.75 424.438C692.75 427.375 695.125 429.75 698.062 429.75C701 429.75 703.375 427.375 703.375 424.438C703.375 421.5 701 419.125 698.062 419.125ZM702.125 424.125H700.25C700.25 422.875 700.063 421.625 699.688 420.688C701 421.312 702 422.562 702.125 424.125ZM698.062 428.5C697.813 428.375 697.25 427.375 697.125 425.375H698.937C698.812 427.375 698.312 428.375 698.062 428.5ZM697.125 424.125C697.187 421.75 697.812 420.5 698 420.375C698.25 420.5 698.875 421.75 698.937 424.125H697.125ZM696.437 420.688C696.062 421.625 695.937 422.875 695.875 424.125H694C694.125 422.562 695.125 421.312 696.437 420.688ZM694.125 425.375H695.875C695.937 426.375 696.125 427.375 696.437 428.188C695.312 427.687 694.438 426.625 694.125 425.375ZM699.688 428.188C700 427.375 700.187 426.437 700.25 425.375H702.062C701.687 426.625 700.813 427.687 699.688 428.188Z" fill="white"/>
<path d="M700.125 417.25C699.562 414.375 697 412.25 694 412.25C691 412.25 688.437 414.375 687.875 417.313C685.687 417.75 684 419.625 684 421.938C684 424.5 686.125 426.625 688.688 426.625H690.875V425.375H688.688C686.812 425.375 685.25 423.812 685.25 421.938C685.25 420.125 686.625 418.625 688.437 418.5H689V417.938C689.312 415.438 691.437 413.5 694 413.5C696.313 413.5 698.25 415.125 698.813 417.25H700.125Z" fill="white"/>
<text fill="black" xml:space="preserve" style="white-space: pre" font-family="IBM Plex Sans" font-size="14" font-weight="600" letter-spacing="0.16px"><tspan x="665.67" y="467.25">Network</tspan></text>
<defs>
<clipPath id="clip0_1113_50308">
<rect width="448" height="48" fill="white" transform="translate(316 37)"/>
</clipPath>
<clipPath id="clip1_1113_50308">
<rect width="20" height="20" fill="white" transform="translate(332 51)"/>
</clipPath>
<clipPath id="clip2_1113_50308">
<rect width="20" height="20" fill="white" transform="translate(426 117)"/>
</clipPath>
<clipPath id="clip3_1113_50308">
<rect width="20" height="20" fill="white" transform="translate(426 233)"/>
</clipPath>
<clipPath id="clip4_1113_50308">
<rect width="416" height="48" fill="white" transform="translate(332 333)"/>
</clipPath>
<clipPath id="clip5_1113_50308">
<rect width="20" height="20" fill="white" transform="translate(378 411)"/>
</clipPath>
</defs>
</svg>
